HIERARCHY
ROOT Hips
{
 OFFSET 0.000000 0.000000 0.000000
 CHANNELS 6 Xposition Yposition Zposition Yrotation Xrotation Zrotation
 JOINT Chest
 {
  OFFSET 0.000000 12.953391 -0.028419
  CHANNELS 3 Yrotation Xrotation Zrotation
  JOINT Chest2
  {
   OFFSET 0.000000 10.280254 0.051622
   CHANNELS 3 Yrotation Xrotation Zrotation
   JOINT Chest3
   {
    OFFSET 0.000000 9.287180 0.000000
    CHANNELS 3 Yrotation Xrotation Zrotation
    JOINT Chest4
    {
     OFFSET 0.000000 9.287180 0.000000
     CHANNELS 3 Yrotation Xrotation Zrotation
     JOINT Neck
     {
      OFFSET 0.000000 13.296264 0.000000
      CHANNELS 3 Yrotation Xrotation Zrotation
      JOINT Head
      {
       OFFSET 0.000000 8.959264 0.099003
       CHANNELS 3 Yrotation Xrotation Zrotation
       End Site
       {
        OFFSET 0.000000 17.121337 0.039303
       }
      }
     }
     JOINT RightCollar
     {
      OFFSET -3.193511 7.451388 0.000000
      CHANNELS 3 Yrotation Xrotation Zrotation
      JOINT RightShoulder
      {
       OFFSET -15.792092 0.000000 0.000000
       CHANNELS 3 Yrotation Xrotation Zrotation
       JOINT RightElbow
       {
        OFFSET -31.151839 0.000000 0.000000
        CHANNELS 3 Yrotation Xrotation Zrotation
        JOINT RightWrist
        {
         OFFSET -25.536298 0.000000 0.002321
         CHANNELS 3 Yrotation Xrotation Zrotation
         End Site
         {
          OFFSET -19.133213 0.000000 0.000000
         }
        }
       }
      }
     }
     JOINT LeftCollar
     {
      OFFSET 3.193511 7.451388 0.000000
      CHANNELS 3 Yrotation Xrotation Zrotation
      JOINT LeftShoulder
      {
       OFFSET 15.792092 0.000000 0.000000
       CHANNELS 3 Yrotation Xrotation Zrotation
       JOINT LeftElbow
       {
        OFFSET 31.151839 0.000000 0.000000
        CHANNELS 3 Yrotation Xrotation Zrotation
        JOINT LeftWrist
        {
         OFFSET 25.536298 0.000000 0.002321
         CHANNELS 3 Yrotation Xrotation Zrotation
         End Site
         {
          OFFSET 19.133213 0.000000 0.000000
         }
        }
       }
      }
     }
    }
   }
  }
 }
 JOINT RightHip
 {
  OFFSET -10.745749 0.139252 0.014209
  CHANNELS 3 Yrotation Xrotation Zrotation
  JOINT RightKnee
  {
   OFFSET 0.000000 -43.743899 -0.006071
   CHANNELS 3 Yrotation Xrotation Zrotation
   JOINT RightAnkle
   {
    OFFSET 0.000000 -43.214199 0.089931
    CHANNELS 3 Yrotation Xrotation Zrotation
    JOINT RightToe
    {
     OFFSET 0.000000 -9.699830 19.151588
     CHANNELS 3 Yrotation Xrotation Zrotation
     End Site
     {
      OFFSET 0.000000 -1.292898 4.893873
     }
    }
   }
  }
 }
 JOINT LeftHip
 {
  OFFSET 10.745749 0.139252 0.014209
  CHANNELS 3 Yrotation Xrotation Zrotation
  JOINT LeftKnee
  {
   OFFSET 0.000000 -43.743899 -0.006071
   CHANNELS 3 Yrotation Xrotation Zrotation
   JOINT LeftAnkle
   {
    OFFSET 0.000000 -43.214199 0.089931
    CHANNELS 3 Yrotation Xrotation Zrotation
    JOINT LeftToe
    {
     OFFSET 0.000000 -9.699830 19.151588
     CHANNELS 3 Yrotation Xrotation Zrotation
     End Site
     {
      OFFSET 0.000000 -1.292898 4.893873
     }
    }
   }
  }
 }
}
MOTION
Frames: 9
Frame Time: 0.016667
-28.541132 98.314157 125.081823 102.172043 -6.142307 0.741835 -0.688351 11.255999 1.788159 -0.347980 5.000003 0.807553 -0.347980 5.000003 0.807553 -0.267441 3.749552 0.608133 -13.782196 25.796843 6.135738 -25.946304 14.050969 13.841267 6.211179 -2.156707 8.645415 6.187025 -19.826978 66.002481 0.542850 16.367664 -8.830250 -0.189721 18.777109 -17.680063 -3.904551 -0.737649 -9.287309 -10.121549 -11.126047 -73.635988 -5.471996 3.119433 2.826839 8.521431 10.319495 11.070707 -7.173810 8.791241 0.169643 0.490600 2.246590 -0.690740 1.753063 -5.563992 -0.482975 0.000000 0.000000 0.000000 2.270234 1.206585 8.756346 -2.964561 11.214844 -0.084153 -18.735346 -8.187704 -5.889196 0.000000 -0.000000 0.000000
-28.644419 98.293383 125.012670 102.487605 -5.998395 0.806165 -0.786019 11.145243 1.729658 -0.389339 4.950486 0.783945 -0.389329 4.950479 0.783943 -0.298175 3.712366 0.590749 -13.774542 25.802736 6.131221 -25.931020 14.058899 13.830808 6.159937 -2.063035 8.640132 6.063911 -19.758883 66.029125 0.657338 16.508199 -8.706849 -0.311389 18.524771 -17.852246 -3.884032 -0.651507 -9.322416 -10.004455 -11.147238 -73.551592 -5.631679 3.161443 2.867399 8.520738 10.333008 10.995685 -6.910030 8.764736 -0.002494 -0.080362 2.003812 -0.410042 1.794574 -5.433653 -0.560381 0.000000 0.000000 -0.000000 2.792720 0.474456 8.539852 -4.273855 11.938259 0.084680 -18.182075 -8.638372 -5.785182 0.000000 0.000000 0.000000
-28.747707 98.272609 124.943518 102.803247 -5.854838 0.871275 -0.883575 11.034557 1.670986 -0.430714 4.901049 0.760210 -0.430709 4.901045 0.760209 -0.328942 3.675256 0.573270 -13.766857 25.808622 6.126737 -25.915689 14.066822 13.820407 6.108880 -1.969255 8.634869 5.940986 -19.690530 66.055756 0.772434 16.648579 -8.583378 -0.432385 18.272061 -18.023408 -3.863360 -0.565324 -9.357303 -9.887518 -11.169073 -73.467163 -5.791592 3.203468 2.907089 8.520332 10.346351 10.920681 -6.646774 8.740345 -0.175689 -0.652584 1.762839 -0.128071 1.835826 -5.303200 -0.637604 0.000000 0.000000 0.000000 3.318720 -0.253464 8.311414 -5.584559 12.664876 0.237711 -17.627958 -9.088653 -5.685192 0.000000 -0.000000 -0.000000
-28.844855 98.251687 124.870682 103.141180 -5.721421 0.910029 -0.970670 10.937213 1.615504 -0.467619 4.857600 0.737602 -0.467619 4.857600 0.737602 -0.356379 3.642645 0.556595 -13.759080 25.803132 6.135631 -25.904302 14.057360 13.835755 6.048024 -1.863408 8.621818 5.756849 -19.607900 66.117541 0.949731 16.782720 -8.465719 -0.556648 18.011993 -18.447606 -3.850473 -0.469331 -9.386970 -9.815005 -11.195455 -73.372425 -6.010177 3.209250 2.958369 8.520608 10.354482 10.862765 -6.420878 8.728949 -0.327985 -1.174634 1.521438 0.140565 1.837934 -5.185697 -0.709239 -0.000000 -0.000000 -0.000000 3.843231 -0.992947 8.144804 -6.573807 13.479149 0.295464 -17.010640 -9.461713 -5.468317 0.000000 -0.000000 0.000000
-28.929264 98.231011 124.792292 103.516120 -5.603467 0.911095 -1.051074 10.858036 1.565052 -0.501753 4.822238 0.717050 -0.501753 4.822234 0.717049 -0.381762 3.616093 0.541436 -13.750277 25.778422 6.161297 -25.896956 14.016956 13.884201 5.973327 -1.728736 8.592783 5.468861 -19.520180 66.244306 1.230629 16.944307 -8.374884 -0.760554 17.710996 -19.254844 -3.843428 -0.349396 -9.412036 -9.809722 -11.227401 -73.259609 -6.320136 3.144900 3.025079 8.522956 10.349507 10.836431 -6.227768 8.744914 -0.449493 -1.647445 1.262464 0.392195 1.780358 -5.083652 -0.768824 -0.000000 -0.000000 -0.000000 4.378328 -1.764152 8.060846 -7.237043 14.426787 0.213833 -16.365870 -9.709476 -5.028825 0.000000 0.000000 0.000000
-29.007535 98.210187 124.710218 103.913145 -5.495117 0.885786 -1.121202 10.792377 1.517716 -0.531472 4.792927 0.697635 -0.531471 4.792918 0.697633 -0.403853 3.594085 0.527095 -13.741674 25.742239 6.200138 -25.894120 13.959069 13.958147 5.889078 -1.581715 8.556249 5.120502 -19.416618 66.406700 1.573736 17.099052 -8.289691 -0.964682 17.399123 -20.313364 -3.843888 -0.219620 -9.431646 -9.848859 -11.263566 -73.136604 -6.689110 3.045038 3.103363 8.525767 10.339446 10.827245 -6.071749 8.772694 -0.549156 -2.070186 1.002121 0.629639 1.683883 -4.994728 -0.823188 -0.000000 -0.000000 0.000000 4.909074 -2.550856 8.036927 -7.577930 15.460470 0.061704 -15.655920 -9.898636 -4.478507 0.000000 0.000000 0.000000
-29.093321 98.187882 124.626388 104.309932 -5.389238 0.840942 -1.159768 10.739388 1.471125 -0.547302 4.769383 0.677821 -0.547302 4.769383 0.677821 -0.415540 3.576439 0.512352 -13.736488 25.706548 6.254969 -25.900456 13.906802 14.060805 5.797795 -1.460148 8.529544 4.779975 -19.253745 66.550847 1.915921 17.138975 -8.153705 -0.941432 17.169241 -21.487849 -3.865201 -0.112522 -9.438651 -9.908331 -11.304354 -73.016725 -7.077989 2.976379 3.193352 8.525039 10.342974 10.808742 -6.002864 8.777660 -0.633286 -2.388342 0.787483 0.847431 1.571686 -4.924778 -0.886881 -0.000000 -0.000000 0.000000 5.388181 -3.316448 8.083447 -7.280615 16.524189 -0.047912 -14.709663 -10.130457 -4.033344 0.000000 -0.000000 0.000000
-29.194185 98.161407 124.544255 104.684791 -5.277016 0.774832 -1.147413 10.697878 1.425705 -0.540669 4.751104 0.657357 -0.540668 4.751115 0.657357 -0.410389 3.562770 0.496947 -13.737928 25.677496 6.334053 -25.922640 13.874343 14.206090 5.695213 -1.379799 8.514015 4.470921 -18.997163 66.655080 2.275648 16.943403 -7.910684 -0.561778 17.045364 -22.752671 -3.921666 -0.043739 -9.428487 -9.988904 -11.347794 -72.905115 -7.481047 2.960153 3.299054 8.517308 10.366160 10.766459 -6.066840 8.737640 -0.707726 -2.555247 0.635692 1.051615 1.470018 -4.876427 -0.969568 0.000000 0.000000 -0.000000 5.792889 -4.050546 8.216200 -6.035885 17.639899 -0.028750 -13.343635 -10.556471 -3.866697 -0.000000 -0.000000 0.000000
-29.302565 98.133451 124.460366 105.059298 -5.166877 0.689163 -1.103574 10.669054 1.380955 -0.520156 4.738528 0.636487 -0.520153 4.738535 0.636485 -0.394834 3.553372 0.481131 -13.742859 25.648718 6.429047 -25.954326 13.847496 14.379935 5.585442 -1.324647 8.508466 4.170823 -18.681606 66.741370 2.632240 16.633346 -7.618380 0.042470 17.019812 -24.136122 -3.999117 0.002620 -9.405859 -10.089996 -11.395537 -72.796737 -7.904142 2.976058 3.414944 8.506180 10.402628 10.714502 -6.217802 8.674241 -0.766515 -2.616716 0.528407 1.235491 1.352707 -4.846996 -1.061531 -0.000000 -0.000000 0.000000 6.142654 -4.767163 8.423547 -4.134546 18.789432 0.096954 -11.739586 -11.027839 -3.845385 0.000000 0.000000 0.000000
